<?xml version="1.0" encoding="utf-8"?>
<!-- Generator: Adobe Illustrator 26.3.1, SVG Export Plug-In . SVG Version: 6.00 Build 0)  -->
<svg version="1.1" id="Layer_1" xmlns="http://www.w3.org/2000/svg" xmlns:xlink="http://www.w3.org/1999/xlink" x="0px" y="0px" width="32px"
     height="32px" viewBox="0 0 32 32" style="enable-background:new 0 0 32 32;" xml:space="preserve">
<path fill="#BE1622" d="M17.4,0.1c0.5,0.1,1.3,0.4,1.8,0.7c1.1,0.5,1.3,0.8,1.5,2c0.1,0.6,0.1,0.7,1.5,1.4c1.5,0.8,1.8,1,1.8,1.3
    c0,0.4-0.3,0.3-1.8-0.5c-1.6-0.8-1.4-1-1.8,1.7c-0.1,0.9-0.3,1.9-0.4,2.2c-0.2,0.5-0.2,0.5-0.8,0.5c-0.6,0-0.7,0-0.7,0.3
    s0.5,0.5,2.9,1.3c3.3,1.1,3.2,1,2.4,2.5c-0.5,1.1-1,1.6-2.2,2.5c-1.1,0.8-1.6,1-2.3,0.5c-0.3-0.2-0.6-0.3-0.6-0.3
    c-0.1,0,0.3,3.1,0.6,4.5c0.4,2.4,0.7,5.3,0.8,8.2l0.1,2.8l-0.4,0.2c-0.7,0.3-4,0.4-4.8,0.2l-0.7-0.2v-3.6c0-3.5-0.2-7.3-0.4-8.4
    c-0.1-0.5-0.2-0.5-0.9-0.6c-1-0.1-1.4-0.4-1.6-1c-0.2-0.4-0.3-0.5-0.7-0.6c-0.5-0.1-0.6-0.2-0.8-0.8c-0.2-0.4-0.3-1.3-0.4-2.1
    l-0.1-1.4L9.9,13c0.4-0.2,0.5-0.3,0.5-1.1c0-1.5,0.2-2.6,0.5-2.8c0.3-0.2,0.2-0.2-0.2-0.3c-0.5-0.1-0.5-0.1-0.6,0.2
    c-0.1,0.2-0.1,0.7,0,1.1c0.1,1,0,1-1,0.3C8.3,9.9,7.7,8.9,7.7,8.2c0-0.5,0.4-2,0.6-2.3c0.2-0.3,1-0.4,1.5-0.1
    c0.6,0.2,0.8,0.8,0.5,1.4c-0.1,0.2-0.1,0.4,0,0.4C10.5,7.7,12,8,12.1,7.9c0,0,0-0.3-0.1-0.6c-0.1-0.3-0.2-0.8-0.2-1.1
    c0-0.3-0.1-0.9-0.3-1.4c-0.7-1.9-0.2-3.5,1.3-4.3C14,0,15.9-0.2,17.4,0.1z"/>
</svg>