<?xml version="1.0" encoding="utf-8"?>
<!-- Generator: Adobe Illustrator 16.0.3, SVG Export Plug-In . SVG Version: 6.00 Build 0)  -->
<!DOCTYPE svg PUBLIC "-//W3C//DTD SVG 1.1//EN" "http://www.w3.org/Graphics/SVG/1.1/DTD/svg11.dtd">
<svg version="1.1" xmlns="http://www.w3.org/2000/svg" xmlns:xlink="http://www.w3.org/1999/xlink" x="0px" y="0px" width="32px"
	 height="32px" viewBox="0 0 32 32" enable-background="new 0 0 32 32" xml:space="preserve">
<g id="Layer_1">
</g>
<g id="Layer_2">
	<path fill="#FFFFFF" d="M26.961,14.569l3.633-2.804L27.01,5.495l-4.295,1.721l-2.5-1.449l-0.643-4.543h-7.229l-0.622,4.543
		L9.221,7.216l-4.294-1.7l-3.583,6.208l3.631,2.846l0.015,2.904l-3.646,2.834l3.604,6.25l4.273-1.734l2.501,1.449l0.622,4.514
		l7.229,0.042l0.643-4.556l2.5-1.449l4.337,1.734l3.542-6.271l-3.633-2.816V14.569z M15.969,22.558
		c-3.607,0-6.531-2.924-6.531-6.531s2.924-6.531,6.531-6.531s6.531,2.924,6.531,6.531S19.576,22.558,15.969,22.558z"/>
</g>
</svg>
